<?xml version="1.0" encoding="UTF-8"?>
<svg width="24px" height="24px" stroke-width="1.5" viewBox="0 0 24 24" fill="none" xmlns="http://www.w3.org/2000/svg" color="#dc2626">
<path d="M6.75024 2C4.95025 2 3.29427 2.68396 2.0144 3.82641C0.734531 4.96887 0 6.47411 0 8.08926C0 9.7044 0.734531 11.2096 2.0144 12.3521C3.29427 13.4946 4.95025 14.1785 6.75024 14.1785H17.2498C19.0497 14.1785 20.7057 13.4946 21.9856 12.3521C23.2655 11.2096 24 9.7044 24 8.08926C24 6.47411 23.2655 4.96887 21.9856 3.82641C20.7057 2.68396 19.0497 2 17.2498 2H6.75024Z" fill="#dc2626"/>
<path d="M17.2498 14.1785V22H6.75024V14.1785M12 6.08926V10.0893" stroke="white" stroke-width="1.5" stroke-linecap="round" stroke-linejoin="round"/>
</svg>